<svg width="749" height="884" viewBox="0 0 749 884" fill="none" xmlns="http://www.w3.org/2000/svg">
<path d="M86.7353 645L177 595.6L78 593L80.9118 629.4L86.7353 645Z" fill="#4D49EF" stroke="#4D49EF"/>
<path d="M310 528L208.542 490.329L178.847 419.696L164 342L285.254 396.152L310 528Z" fill="#5E5CFF" stroke="#5E5CFF"/>
<path d="M257 671.778L170.329 582L160.959 593.222L86 643.722L111.767 683L257 671.778Z" fill="#5856FF" stroke="#5856FF"/>
<path d="M2 561.261L78.6271 423L139 582L2 561.261Z" fill="#4D49EF" stroke="#4D49EF"/>
<path d="M421.905 420.431L291.667 402.467L341.068 508.004L421.905 420.431Z" fill="#5856FF" stroke="#5856FF"/>
<path d="M296.158 391.239L318.613 292.438L426.396 380.012L296.158 391.239Z" fill="#7F7BFF" stroke="#7F7BFF"/>
<path d="M263 54.8916L269.736 191.866L456.111 1L263 54.8916Z" fill="#5856FF" stroke="#5856FF"/>
<path d="M94 169.129L221.957 63L263 203L94 169.129Z" fill="#4D49EF" stroke="#4D49EF"/>
<path d="M49 378L94.1778 169L263 203.833L182.156 350.133L49 378Z" fill="#7F7BFF" stroke="#7F7BFF"/>
<path d="M79.1053 424L181 348L49 378.4L79.1053 424Z" fill="#5E5CFF" stroke="#5E5CFF"/>
<path d="M317 282.065L263.351 202L178 348L317 282.065Z" fill="#4D49EF" stroke="#4D49EF"/>
<path d="M172.6 353L78 421.824L188 431L172.6 353Z" fill="#5856FF" stroke="#5856FF"/>
<path d="M270.3 390.637L305.464 287.84L176.581 348.867L270.3 390.637Z" fill="#4D49EF" stroke="#4D49EF"/>
<path d="M29.4101 597.091L1.46265 561.936L132.282 580.712L164.212 597.783L29.4101 597.091Z" fill="#5E5CFF" stroke="#5E5CFF"/>
<path d="M103 684L111.4 676.8L215 672L189.8 700.8L125.4 708L111.4 700.8L103 691.2V684Z" fill="#4D49EF" stroke="#4D49EF"/>
<path d="M119 716.611V709.889L175.781 698.685L198 683L153.562 804H146.156H138.75L131.344 797.278L126.406 786.074V723.333L119 716.611Z" fill="#5856FF" stroke="#5856FF"/>
<path d="M215.321 490.041L188.375 431.658L78.3464 422.676L134.483 575.369L215.321 490.041Z" fill="#4D49EF" stroke="#4D49EF"/>
<path d="M300.368 708L127 575H310L300.368 708Z" fill="#4D49EF" stroke="#4D49EF"/>
<path d="M310 582V522L216.286 486L134 577.2L310 582Z" fill="#4D49EF" stroke="#4D49EF"/>
<path d="M301 702.105L155 804L195.431 672H253.831L301 702.105Z" fill="#4D49EF" stroke="#4D49EF"/>
<path d="M287.176 815.635L154.693 804.408L300.649 703.361L287.176 815.635Z" fill="#5E5CFF" stroke="#5E5CFF"/>
<path d="M444.188 733.457L287.302 815.733L310.822 702.225L444.188 733.457Z" fill="#5856FF" stroke="#5856FF"/>
<path d="M388.223 144.236L482.533 22.9803L547.652 128.518L388.223 144.236Z" fill="#7F7BFF" stroke="#7F7BFF"/>
<path d="M662.172 58.9081V144.236L552.143 25.2258L662.172 58.9081Z" fill="#5856FF" stroke="#5856FF"/>
<path d="M707.081 137.5L680.135 274.474L747.5 216.092L707.081 137.5Z" fill="#7F7BFF" stroke="#7F7BFF"/>
<path d="M446.605 202.619L318.613 272.229L273.703 202.619L446.605 159.955V202.619Z" fill="#4D49EF" stroke="#4D49EF"/>
<path d="M585.825 207.11L480.288 377.766L379.241 290.193L585.825 207.11Z" fill="#5856FF" stroke="#5856FF"/>
<path d="M478.042 564.142L451.096 458.604L350.05 537.196L363.523 593.333L478.042 564.142Z" fill="#7F7BFF" stroke="#7F7BFF"/>
<path d="M444.36 687.643L327.595 595.578L320.858 687.643H444.36Z" fill="#4D49EF" stroke="#4D49EF"/>
<path d="M552.143 384.503L653.19 335.102L588.071 492.286L552.143 384.503Z" fill="#4D49EF" stroke="#4D49EF"/>
<path d="M549.898 494.532L513.97 382.257L457.833 418.185L491.515 474.322L502.742 555.16L549.898 494.532Z" fill="#5856FF" stroke="#5856FF"/>
<path d="M680.135 467.586L711.572 335.102L734.027 384.503L680.135 467.586Z" fill="#5856FF" stroke="#5856FF"/>
<path d="M700.345 532.705L549.898 622.524L664.417 613.542L700.345 532.705Z" fill="#5856FF" stroke="#5856FF"/>
<path d="M460.078 642.733L426.396 606.806L511.724 584.351L460.078 642.733Z" fill="#4D49EF" stroke="#4D49EF"/>
<path d="M318.613 883L289.422 833.599L448.851 777.462L318.613 883Z" fill="#5E5CFF" stroke="#5E5CFF"/>
<path d="M482.533 734.798V669.679L585.825 665.188L482.533 734.798Z" fill="#4D49EF" stroke="#4D49EF"/>
<path d="M691.363 759.498L655.435 642.733L565.616 734.798L691.363 759.498Z" fill="#4D49EF" stroke="#4D49EF"/>
<path d="M192.88 671.468L90 650L109.715 675.483L192.88 671.468Z" fill="#5E5CFF" stroke="#5E5CFF"/>
</svg>
