<svg width="520" height="600" viewBox="0 0 520 600" fill="none" xmlns="http://www.w3.org/2000/svg">
<path d="M396.312 328.506L360.793 418.671L456.422 398.179L396.312 328.506Z" fill="#BD91F3" stroke="#BD91F3"/>
<path d="M413.047 186.428L385.383 219.787L434.564 243.806L413.047 186.428Z" fill="#781DE5" stroke="#781DE5"/>
<path d="M415.438 189.16L519.264 222.902L497.967 301.183L434.074 244.497L415.438 189.16Z" fill="#BD91F3" stroke="#BD91F3"/>
<path d="M322.541 286.156L307.514 208.286L385.383 220.581L322.541 286.156Z" fill="#BD91F3" stroke="#BD91F3"/>
<path d="M282.33 372.222L180.463 224.68L322.541 287.153L282.33 372.222Z" fill="#2F095C" stroke="#2F095C"/>
<path d="M281.557 374.605L153.141 358.561L211.884 484.245L281.557 374.605Z" fill="#781DE7" stroke="#781DE7"/>
<path d="M88.9325 437.796L153.141 355.828L210.518 484.245L136.747 514.3L88.9325 437.796Z" fill="#BD91F3" stroke="#BD91F3"/>
<path d="M211.884 77.1373L112.157 139.979L211.884 131.783L315.711 70.3066L211.884 77.1373Z" fill="#2F095C" stroke="#2F095C"/>
<path d="M69.8066 47.0824V2L108.058 37.5195L69.8066 47.0824Z" fill="#2E0856" stroke="#2E0856"/>
<path d="M64.3421 105.826L11.0629 89.4324L64.3421 60.7437V105.826Z" fill="#711FD9" stroke="#711FD9"/>
<path d="M24.7243 133.149L1.5 168.668L53.413 189.16L80.7357 127.684L24.7243 133.149Z" fill="#30095C" stroke="#30095C"/>
<path d="M1.5 243.805L26.0904 215.117L68.4405 217.849L1.5 243.805Z" fill="#C090FD" stroke="#C090FD"/>
<path d="M132.649 335.336L12.4291 275.227L151.775 242.439L132.649 335.336Z" fill="#2F095C" stroke="#2F095C"/>
<path d="M69.8066 395.446L31.5549 340.801L121.72 354.462L69.8066 395.446Z" fill="#781AEA" stroke="#781AEA"/>
<path d="M116.255 157.739L80.7357 231.51L157.239 200.089L185.928 152.275L116.255 157.739Z" fill="#781DE7" stroke="#781DE7"/>
<path d="M170.9 71.6728L97.1293 59.3776L101.228 114.023L170.9 71.6728Z" fill="#BD91F3" stroke="#BD91F3"/>
<path d="M166.802 44.3501L128.55 10.1968L190.026 23.8581L166.802 44.3501Z" fill="#7E28EB" stroke="#7E28EB"/>
<path d="M247.404 59.3776L190.026 62.1099L215.983 32.0549L247.404 59.3776Z" fill="#310B56" stroke="#310B56"/>
<path d="M409.974 492.54L213.251 484.245L288.913 599L372.83 590.704L409.974 492.54Z" fill="#BD91F3" stroke="#BD91F3"/>
<path d="M210.518 484.245L136.747 514.3L277.459 599H287.022L210.518 484.245Z" fill="#2F095B" stroke="#2F095B"/>
<path d="M177.731 221.947L153.141 355.828L281.557 372.222L177.731 221.947Z" fill="#BF93F4" stroke="#BF93F4"/>
<path d="M225.546 139.979L179.097 217.849L307.514 208.286L225.546 139.979Z" fill="#781DE7" stroke="#781DE7"/>
<path d="M409.974 186.428L225.546 138.613L308.88 208.286L385.383 220.581L409.974 186.428Z" fill="#2F095C" stroke="#2F095C"/>
<path d="M348.498 70.3066L226.912 138.613L409.974 186.428L348.498 70.3066Z" fill="#BD91F3" stroke="#BD91F3"/>
<path d="M493.308 130.416L351.23 70.3066L412.706 186.428L519.264 220.581L493.308 130.416Z" fill="#781DE7" stroke="#781DE7"/>
<path d="M323.827 287.079L284.289 369.49L396.312 328.284L385.769 221.947L323.827 287.079Z" fill="#781DE7" stroke="#781DE7"/>
<path d="M396.527 326.612L385.383 219.215L429.957 243.999L456.422 394.08L396.527 326.612Z" fill="#2F095C" stroke="#2F095C"/>
<path d="M445.493 310.607L458.804 394.08H492.082L497.406 301.183L445.493 310.607Z" fill="#BD91F3" stroke="#BD91F3"/>
<path d="M396.312 328.506L360.729 415.938L284.289 370.204L396.312 328.506Z" fill="#300A5D" stroke="#300A5D"/>
<path d="M281.657 372.222L213.251 481.513L360.793 417.538L281.657 372.222Z" fill="#BD91F3" stroke="#BD91F3"/>
<path d="M409.474 492.442L363.525 417.304L456.775 396.812H489.209L409.474 492.442Z" fill="#7B1DF0" stroke="#7B1DF0"/>
</svg>
